<svg width="95" height="95" viewBox="0 0 95 95" fill="none" xmlns="http://www.w3.org/2000/svg">
<path d="M90.2506 0H4.7506C2.04428 0.0861113 -0.0811253 2.34754 0.000601637 5.054V89.946C-0.0811253 92.6525 2.04428 94.9139 4.7506 95H90.2506C92.9569 94.9139 95.0823 92.6525 95.0006 89.946V5.054C95.0823 2.34754 92.9569 0.0861113 90.2506 0ZM4.7506 3.16667H90.2506C91.1989 3.2698 91.8972 4.10223 91.8339 5.054V12.6667H3.16727V5.054C3.10397 4.10223 3.80232 3.2698 4.7506 3.16667ZM90.2506 91.8333H4.7506C3.80232 91.7302 3.10397 90.8978 3.16727 89.946V15.8333H91.8339V89.946C91.9092 90.9016 91.2048 91.7413 90.2506 91.8333Z" fill="white"/>
<path d="M7.91674 9.50004C8.79119 9.50004 9.50007 8.79116 9.50007 7.91671C9.50007 7.04226 8.79119 6.33337 7.91674 6.33337C7.04229 6.33337 6.3334 7.04226 6.3334 7.91671C6.3334 8.79116 7.04229 9.50004 7.91674 9.50004Z" fill="#EB3F57"/>
<path d="M14.25 9.50004C15.1245 9.50004 15.8334 8.79116 15.8334 7.91671C15.8334 7.04226 15.1245 6.33337 14.25 6.33337C13.3756 6.33337 12.6667 7.04226 12.6667 7.91671C12.6667 8.79116 13.3756 9.50004 14.25 9.50004Z" fill="#EB3F57"/>
<path d="M20.5833 9.50004C21.4578 9.50004 22.1667 8.79116 22.1667 7.91671C22.1667 7.04226 21.4578 6.33337 20.5833 6.33337C19.7089 6.33337 19 7.04226 19 7.91671C19 8.79116 19.7089 9.50004 20.5833 9.50004Z" fill="#EB3F57"/>
<path d="M76 9.50004H87.0834C87.9578 9.50004 88.6667 8.79116 88.6667 7.91671C88.6667 7.04226 87.9578 6.33337 87.0834 6.33337H76C75.1256 6.33337 74.4167 7.04226 74.4167 7.91671C74.4167 8.79116 75.1256 9.50004 76 9.50004Z" fill="#EB3F57"/>
<mask id="path-6-inside-1_1_105" fill="white">
<path d="M28.5 36.4167C30.2489 36.4167 31.6667 34.9989 31.6667 33.25V22.1667C31.6667 20.4178 30.2489 19 28.5 19H12.6667C10.9178 19 9.50003 20.4178 9.50003 22.1667V33.25C9.50003 34.9989 10.9178 36.4167 12.6667 36.4167H28.5ZM12.6667 22.1667H28.5V33.25H12.6667V22.1667Z"/>
</mask>
<path d="M28.5 36.4167C30.2489 36.4167 31.6667 34.9989 31.6667 33.25V22.1667C31.6667 20.4178 30.2489 19 28.5 19H12.6667C10.9178 19 9.50003 20.4178 9.50003 22.1667V33.25C9.50003 34.9989 10.9178 36.4167 12.6667 36.4167H28.5ZM12.6667 22.1667H28.5V33.25H12.6667V22.1667Z" fill="white"/>
<path d="M12.6667 22.1667V13.6333H4.13336V22.1667H12.6667ZM28.5 22.1667H37.0334V13.6333H28.5V22.1667ZM28.5 33.25V41.7833H37.0334V33.25H28.5ZM12.6667 33.25H4.13336V41.7833H12.6667V33.25ZM28.5 44.95C34.9618 44.95 40.2 39.7117 40.2 33.25H23.1334C23.1334 30.2861 25.5361 27.8833 28.5 27.8833V44.95ZM40.2 33.25V22.1667H23.1334V33.25H40.2ZM40.2 22.1667C40.2 15.7049 34.9618 10.4667 28.5 10.4667V27.5333C25.5361 27.5333 23.1334 25.1306 23.1334 22.1667H40.2ZM28.5 10.4667H12.6667V27.5333H28.5V10.4667ZM12.6667 10.4667C6.20497 10.4667 0.966697 15.7049 0.966697 22.1667H18.0334C18.0334 25.1306 15.6306 27.5333 12.6667 27.5333V10.4667ZM0.966697 22.1667V33.25H18.0334V22.1667H0.966697ZM0.966697 33.25C0.966697 39.7117 6.20497 44.95 12.6667 44.95V27.8833C15.6306 27.8833 18.0334 30.2861 18.0334 33.25H0.966697ZM12.6667 44.95H28.5V27.8833H12.6667V44.95ZM12.6667 30.7H28.5V13.6333H12.6667V30.7ZM19.9667 22.1667V33.25H37.0334V22.1667H19.9667ZM28.5 24.7167H12.6667V41.7833H28.5V24.7167ZM21.2 33.25V22.1667H4.13336V33.25H21.2Z" fill="#EB3F57" mask="url(#path-6-inside-1_1_105)"/>
<mask id="path-8-inside-2_1_105" fill="white">
<path d="M39.5834 36.4167H55.4167C57.1656 36.4167 58.5834 34.9989 58.5834 33.25V22.1667C58.5834 20.4178 57.1656 19 55.4167 19H39.5834C37.8345 19 36.4167 20.4178 36.4167 22.1667V33.25C36.4167 34.9989 37.8345 36.4167 39.5834 36.4167ZM39.5834 22.1667H55.4167V33.25H39.5834V22.1667Z"/>
</mask>
<path d="M39.5834 36.4167H55.4167C57.1656 36.4167 58.5834 34.9989 58.5834 33.25V22.1667C58.5834 20.4178 57.1656 19 55.4167 19H39.5834C37.8345 19 36.4167 20.4178 36.4167 22.1667V33.25C36.4167 34.9989 37.8345 36.4167 39.5834 36.4167ZM39.5834 22.1667H55.4167V33.25H39.5834V22.1667Z" fill="white"/>
<path d="M39.5834 22.1667V13.6333H31.0501V22.1667H39.5834ZM55.4167 22.1667H63.9501V13.6333H55.4167V22.1667ZM55.4167 33.25V41.7833H63.9501V33.25H55.4167ZM39.5834 33.25H31.0501V41.7833H39.5834V33.25ZM39.5834 44.95H55.4167V27.8833H39.5834V44.95ZM55.4167 44.95C61.8785 44.95 67.1167 39.7117 67.1167 33.25H50.0501C50.0501 30.2861 52.4528 27.8833 55.4167 27.8833V44.95ZM67.1167 33.25V22.1667H50.0501V33.25H67.1167ZM67.1167 22.1667C67.1167 15.7049 61.8785 10.4667 55.4167 10.4667V27.5333C52.4528 27.5333 50.0501 25.1306 50.0501 22.1667H67.1167ZM55.4167 10.4667H39.5834V27.5333H55.4167V10.4667ZM39.5834 10.4667C33.1217 10.4667 27.8834 15.7049 27.8834 22.1667H44.9501C44.9501 25.1306 42.5473 27.5333 39.5834 27.5333V10.4667ZM27.8834 22.1667V33.25H44.9501V22.1667H27.8834ZM27.8834 33.25C27.8834 39.7117 33.1217 44.95 39.5834 44.95V27.8833C42.5473 27.8833 44.9501 30.2861 44.9501 33.25H27.8834ZM39.5834 30.7H55.4167V13.6333H39.5834V30.7ZM46.8834 22.1667V33.25H63.9501V22.1667H46.8834ZM55.4167 24.7167H39.5834V41.7833H55.4167V24.7167ZM48.1167 33.25V22.1667H31.0501V33.25H48.1167Z" fill="#EB3F57" mask="url(#path-8-inside-2_1_105)"/>
<mask id="path-10-inside-3_1_105" fill="white">
<path d="M82.3333 19H66.5C64.7511 19 63.3333 20.4178 63.3333 22.1667V33.25C63.3333 34.9989 64.7511 36.4167 66.5 36.4167H82.3333C84.0822 36.4167 85.5 34.9989 85.5 33.25V22.1667C85.5 20.4178 84.0822 19 82.3333 19ZM66.5 33.25V22.1667H82.3333V33.25H66.5Z"/>
</mask>
<path d="M82.3333 19H66.5C64.7511 19 63.3333 20.4178 63.3333 22.1667V33.25C63.3333 34.9989 64.7511 36.4167 66.5 36.4167H82.3333C84.0822 36.4167 85.5 34.9989 85.5 33.25V22.1667C85.5 20.4178 84.0822 19 82.3333 19ZM66.5 33.25V22.1667H82.3333V33.25H66.5Z" fill="#EB3F57"/>
<path d="M66.5 33.25H57.9667V41.7833H66.5V33.25ZM66.5 22.1667V13.6333H57.9667V22.1667H66.5ZM82.3333 22.1667H90.8667V13.6333H82.3333V22.1667ZM82.3333 33.25V41.7833H90.8667V33.25H82.3333ZM82.3333 10.4667H66.5V27.5333H82.3333V10.4667ZM66.5 10.4667C60.0383 10.4667 54.8 15.7049 54.8 22.1667H71.8667C71.8667 25.1306 69.4639 27.5333 66.5 27.5333V10.4667ZM54.8 22.1667V33.25H71.8667V22.1667H54.8ZM54.8 33.25C54.8 39.7117 60.0383 44.95 66.5 44.95V27.8833C69.4639 27.8833 71.8667 30.2861 71.8667 33.25H54.8ZM66.5 44.95H82.3333V27.8833H66.5V44.95ZM82.3333 44.95C88.7951 44.95 94.0333 39.7117 94.0333 33.25H76.9667C76.9667 30.2861 79.3694 27.8833 82.3333 27.8833V44.95ZM94.0333 33.25V22.1667H76.9667V33.25H94.0333ZM94.0333 22.1667C94.0333 15.7049 88.7951 10.4667 82.3333 10.4667V27.5333C79.3694 27.5333 76.9667 25.1306 76.9667 22.1667H94.0333ZM75.0333 33.25V22.1667H57.9667V33.25H75.0333ZM66.5 30.7H82.3333V13.6333H66.5V30.7ZM73.8 22.1667V33.25H90.8667V22.1667H73.8ZM82.3333 24.7167H66.5V41.7833H82.3333V24.7167Z" fill="#EB3F57" mask="url(#path-10-inside-3_1_105)"/>
<path d="M28.5 39.5834H12.6667C11.7923 39.5834 11.0834 40.2923 11.0834 41.1667C11.0834 42.0412 11.7923 42.75 12.6667 42.75H28.5C29.3745 42.75 30.0834 42.0412 30.0834 41.1667C30.0834 40.2923 29.3745 39.5834 28.5 39.5834Z" fill="white"/>
<path d="M28.5 45.9166H12.6667C11.7923 45.9166 11.0834 46.6255 11.0834 47.5C11.0834 48.3744 11.7923 49.0833 12.6667 49.0833H28.5C29.3745 49.0833 30.0834 48.3744 30.0834 47.5C30.0834 46.6255 29.3745 45.9166 28.5 45.9166Z" fill="white"/>
<path d="M55.4167 39.5834H39.5834C38.7089 39.5834 38 40.2923 38 41.1667C38 42.0412 38.7089 42.75 39.5834 42.75H55.4167C56.2911 42.75 57 42.0412 57 41.1667C57 40.2923 56.2911 39.5834 55.4167 39.5834Z" fill="white"/>
<path d="M55.4167 45.9166H39.5834C38.7089 45.9166 38 46.6255 38 47.5C38 48.3744 38.7089 49.0833 39.5834 49.0833H55.4167C56.2911 49.0833 57 48.3744 57 47.5C57 46.6255 56.2911 45.9166 55.4167 45.9166Z" fill="white"/>
<path d="M82.3333 39.5834H66.5C65.6255 39.5834 64.9167 40.2923 64.9167 41.1667C64.9167 42.0412 65.6255 42.75 66.5 42.75H82.3333C83.2078 42.75 83.9166 42.0412 83.9166 41.1667C83.9166 40.2923 83.2078 39.5834 82.3333 39.5834Z" fill="white"/>
<path d="M72.7257 61.9954C72.702 61.97 72.694 61.9368 72.6703 61.9131C72.6282 61.8815 72.5843 61.8524 72.5389 61.826C58.2875 49.0588 36.7126 49.0588 22.4612 61.826C22.4157 61.8524 22.3719 61.8815 22.3298 61.9131C22.306 61.9368 22.2981 61.97 22.2744 61.9954C15.184 68.4136 11.1221 77.5195 11.0834 87.0833C11.0834 87.9577 11.7923 88.6666 12.6667 88.6666H82.3334C83.2078 88.6666 83.9167 87.9577 83.9167 87.0833C83.878 77.5195 79.8161 68.4136 72.7257 61.9954V61.9954ZM51.9587 85.5H43.0414C43.7023 83.6029 45.4912 82.3318 47.5 82.3318C49.5089 82.3318 51.2978 83.6029 51.9587 85.5ZM55.2584 85.5C54.8588 83.595 53.7715 81.904 52.2041 80.75L60.0195 64.0015C60.2691 63.4874 60.2224 62.8788 59.8973 62.4088C59.5721 61.9389 59.019 61.6806 58.4499 61.7331C57.8809 61.7855 57.3842 62.1405 57.1505 62.662L49.3367 79.4041C48.7361 79.2524 48.1195 79.1727 47.5 79.1666C43.7395 79.1714 40.4992 81.8165 39.7417 85.5H14.2912C14.7284 77.8551 17.9959 70.6467 23.4571 65.2792L27.3806 69.2027C28.0019 69.8028 28.9894 69.7942 29.6002 69.1834C30.2109 68.5727 30.2195 67.5851 29.6195 66.9639L25.8084 63.1496C31.5041 58.4852 38.5611 55.7975 45.9167 55.4911V61.75C45.9167 62.6244 46.6256 63.3333 47.5 63.3333C48.3745 63.3333 49.0834 62.6244 49.0834 61.75V55.4911C56.439 55.7975 63.4959 58.4852 69.1917 63.1496L65.3775 66.9639C64.9659 67.3614 64.8008 67.9501 64.9457 68.5037C65.0906 69.0573 65.5229 69.4896 66.0765 69.6345C66.6301 69.7794 67.2188 69.6143 67.6163 69.2027L71.5398 65.2792C77.0022 70.6462 80.2708 77.8547 80.7089 85.5H55.2584Z" fill="#EB3F57"/>
<path d="M82.3333 45.9166H66.5C65.6255 45.9166 64.9167 46.6255 64.9167 47.5C64.9167 48.3744 65.6255 49.0833 66.5 49.0833H82.3333C83.2078 49.0833 83.9166 48.3744 83.9166 47.5C83.9166 46.6255 83.2078 45.9166 82.3333 45.9166Z" fill="white"/>
</svg>
